<svg width="103" height="90" viewBox="0 0 103 90" fill="none" xmlns="http://www.w3.org/2000/svg">
<g clip-path="url(#clip0)">
<path d="M48.1768 58.358C48.059 58.5721 47.8766 58.6363 47.7053 58.6363C47.5341 58.6363 47.3628 58.5721 47.2451 58.358L46.0132 56.0446V60.7353C46.0132 61.0247 45.6599 61.1746 45.3174 61.1746C44.9637 61.1746 44.6212 61.0247 44.6212 60.7353V54.0415C44.6212 53.5277 44.9637 53.3458 45.3174 53.3458C45.8205 53.3458 46.0458 53.4528 46.399 54.0843L47.7165 56.4834L49.0336 54.0843C49.3873 53.4528 49.6228 53.3458 50.1263 53.3458C50.4796 53.3458 50.8221 53.5277 50.8221 54.0415V60.7353C50.8221 61.0247 50.4688 61.1746 50.1263 61.1746C49.7726 61.1746 49.4301 61.0247 49.4301 60.7353V56.1302L48.1768 58.358Z" fill="white"/>
<path d="M54.6983 56.7082H56.3263C56.6046 56.7082 56.7651 56.9763 56.7651 57.2653C56.7651 57.5115 56.626 57.801 56.3263 57.801H54.6983V59.9534H57.729C58.0077 59.9534 58.1683 60.2424 58.1683 60.5747C58.1683 60.8637 58.0292 61.1746 57.729 61.1746H53.9165C53.6061 61.1746 53.3059 61.0243 53.3059 60.7353V53.7847C53.3059 53.4956 53.6056 53.3453 53.9165 53.3453H57.729C58.0292 53.3453 58.1683 53.6562 58.1683 53.9452C58.1683 54.2775 58.0077 54.5665 57.729 54.5665H54.6983V56.7082Z" fill="white"/>
<path d="M63.8763 60.7353L61.5736 56.4299V60.7353C61.5736 61.0248 61.2203 61.1746 60.8773 61.1746C60.5241 61.1746 60.1811 61.0248 60.1811 60.7353V53.7847C60.1811 53.4849 60.5241 53.3458 60.8773 53.3458C61.3809 53.3458 61.5843 53.4528 61.9166 54.0844L63.9834 58.0793V53.7739C63.9834 53.4742 64.3259 53.3453 64.6796 53.3453C65.0221 53.3453 65.3754 53.4738 65.3754 53.7739V60.7353C65.3754 61.0243 65.0221 61.1746 64.6796 61.1746C64.3473 61.1746 64.0583 61.0676 63.8763 60.7353Z" fill="white"/>
<path d="M71.5763 53.7739C71.5763 53.4742 71.9188 53.3458 72.272 53.3458C72.615 53.3458 72.9683 53.4742 72.9683 53.7739V58.7862C72.9683 60.5747 71.8332 61.2388 70.3979 61.2388C68.9519 61.2388 67.8275 60.5747 67.8275 58.7862V53.7739C67.8275 53.4742 68.1701 53.3458 68.5238 53.3458C68.8663 53.3458 69.2195 53.4742 69.2195 53.7739V58.7862C69.2195 59.6216 69.6589 60.0181 70.3979 60.0181C71.137 60.0181 71.5758 59.6216 71.5758 58.7862V53.7739H71.5763Z" fill="white"/>
<path d="M74.3296 63.2949H69.2386C68.7388 63.2949 68.3339 63.6998 68.3339 64.1991C68.3339 64.699 68.7388 65.1034 69.2386 65.1034H74.3296C74.8294 65.1034 75.2338 64.699 75.2338 64.1991C75.2338 63.6998 74.8294 63.2949 74.3296 63.2949V63.2949Z" fill="white"/>
<path d="M65.0305 63.2949H44.4262C43.9268 63.2949 43.5219 63.6998 43.5219 64.1991C43.5219 64.699 43.9268 65.1034 44.4262 65.1034H65.0305C65.5303 65.1034 65.9348 64.699 65.9348 64.1991C65.9348 63.6998 65.5303 63.2949 65.0305 63.2949Z" fill="white"/>
<path d="M74.3295 49.4858H44.4262C43.9268 49.4858 43.5219 49.8907 43.5219 50.39C43.5219 50.8894 43.9268 51.2943 44.4262 51.2943H74.3295C74.8294 51.2943 75.2338 50.8894 75.2338 50.39C75.2338 49.8907 74.8294 49.4858 74.3295 49.4858Z" fill="white"/>
<path d="M73.8264 38.2731H72.9487C72.6099 32.0419 68.0551 26.9142 62.0939 25.7005L62.2684 24.0321C62.3257 23.4876 62.1479 22.9421 61.7816 22.5358C61.4153 22.1291 60.8913 21.8959 60.344 21.8959H58.4122C57.8644 21.8959 57.3408 22.1295 56.9741 22.5358C56.6078 22.9426 56.4305 23.488 56.4878 24.0321L56.6623 25.7005C50.7011 26.9142 46.1463 32.0415 45.8075 38.2726H44.9297C44.1534 38.2726 43.5219 38.9041 43.5219 39.6804V41.5466C43.5219 42.3229 44.1534 42.9545 44.9297 42.9545H73.826C74.6023 42.9545 75.2338 42.3229 75.2338 41.5466V39.6804C75.2338 38.9046 74.6027 38.2731 73.8264 38.2731V38.2731ZM58.3182 23.7463C58.3433 23.7189 58.3745 23.7049 58.4122 23.7049H60.344C60.3812 23.7049 60.4129 23.7189 60.438 23.7463C60.4632 23.7742 60.4739 23.8073 60.4697 23.8441L60.3007 25.4599C59.9959 25.4394 59.6883 25.4278 59.3783 25.4278C59.0679 25.4278 58.7607 25.4394 58.4559 25.4599L58.2865 23.8441C58.2828 23.8073 58.2935 23.7742 58.3182 23.7463ZM73.4253 41.1459H45.3309V40.0816H49.142C49.6418 40.0816 50.0467 39.6767 50.0467 39.1773C50.0467 38.678 49.6418 38.2731 49.142 38.2731H47.6197C48.006 32.1225 53.1318 27.2368 59.3779 27.2368C65.6244 27.2368 70.7502 32.1225 71.1365 38.2731H53.3501C52.8503 38.2731 52.4458 38.678 52.4458 39.1773C52.4458 39.6767 52.8503 40.0816 53.3501 40.0816H73.4253V41.1459Z" fill="white"/>
<path d="M80.7901 13H37.9661C36.6965 13 35.6633 14.0332 35.6633 15.3028V16.9363H34.8195C33.267 16.9363 32.0039 18.1998 32.0039 19.7524C32.0039 21.3049 33.267 22.5685 34.8195 22.5685H35.6633V26.4354H34.8195C33.267 26.4354 32.0039 27.6985 32.0039 29.2515C32.0039 30.804 33.267 32.0671 34.8195 32.0671H35.6633V35.9345H34.8195C33.267 35.9345 32.0039 37.1976 32.0039 38.7506C32.0039 40.3032 33.267 41.5662 34.8195 41.5662H35.6633V45.4336H34.8195C33.267 45.4336 32.0039 46.6967 32.0039 48.2493C32.0039 49.8023 33.267 51.0654 34.8195 51.0654H35.6633V54.9328H34.8195C33.267 54.9328 32.0039 56.1958 32.0039 57.7484C32.0039 59.3014 33.267 60.5645 34.8195 60.5645H35.6633V64.4319H34.8195C33.267 64.4319 32.0039 65.695 32.0039 67.2475C32.0039 68.8001 33.267 70.0636 34.8195 70.0636H35.6633V71.6971C35.6633 72.9667 36.6965 73.9999 37.9661 73.9999H80.7901C82.0597 73.9999 83.0934 72.9667 83.0934 71.6971V15.3028C83.0934 14.0332 82.0597 13 80.7901 13V13ZM35.6628 20.7599H34.8195C34.2643 20.7599 33.8124 20.3081 33.8124 19.7524C33.8124 19.1972 34.2643 18.7453 34.8195 18.7453H35.6628V20.7599ZM35.6628 30.2586H34.8195C34.2643 30.2586 33.8124 29.8067 33.8124 29.2515C33.8124 28.6958 34.2643 28.2444 34.8195 28.2444H35.6628V30.2586ZM35.6628 39.7577H34.8195C34.2643 39.7577 33.8124 39.3058 33.8124 38.7506C33.8124 38.1949 34.2643 37.743 34.8195 37.743H35.6628V39.7577ZM35.6628 49.2568H34.8195C34.2643 49.2568 33.8124 48.8049 33.8124 48.2493C33.8124 47.6941 34.2643 47.2422 34.8195 47.2422H35.6628V49.2568ZM35.6628 58.7555H34.8195C34.2643 58.7555 33.8124 58.3041 33.8124 57.7484C33.8124 57.1932 34.2643 56.7413 34.8195 56.7413H35.6628V58.7555ZM35.6628 68.2546H34.8195C34.2643 68.2546 33.8124 67.8027 33.8124 67.2475C33.8124 66.6918 34.2643 66.2404 34.8195 66.2404H35.6628V68.2546ZM81.2844 71.6967C81.2844 71.9694 81.0629 72.1914 80.7901 72.1914H37.9661C37.6933 72.1914 37.4718 71.9694 37.4718 71.6967V15.3028C37.4718 15.0305 37.6933 14.8085 37.9661 14.8085H80.7901C81.0629 14.8085 81.2844 15.0305 81.2844 15.3028V71.6967Z" fill="white"/>
</g>
<path d="M24.9101 6.6439C24.9101 6.09162 24.4624 5.6439 23.9101 5.6439C23.3578 5.6439 22.9101 6.09162 22.9101 6.6439H24.9101ZM22.9101 14.5145C22.9101 15.0668 23.3578 15.5145 23.9101 15.5145C24.4624 15.5145 24.9101 15.0668 24.9101 14.5145H22.9101ZM27.8454 11.5792C28.3977 11.5792 28.8454 11.1315 28.8454 10.5792C28.8454 10.0269 28.3977 9.57919 27.8454 9.57919V11.5792ZM19.9748 9.57919C19.4225 9.57919 18.9748 10.0269 18.9748 10.5792C18.9748 11.1315 19.4225 11.5792 19.9748 11.5792L19.9748 9.57919ZM22.9101 6.6439V10.5792H24.9101V6.6439H22.9101ZM22.9101 10.5792V14.5145H24.9101V10.5792H22.9101ZM27.8454 9.57919H23.9101V11.5792H27.8454V9.57919ZM23.9101 9.57919L19.9748 9.57919L19.9748 11.5792L23.9101 11.5792L23.9101 9.57919Z" fill="white"/>
<path d="M98.4075 82.7053C98.1427 82.2206 97.5351 82.0424 97.0505 82.3073C96.5658 82.5721 96.3876 83.1797 96.6525 83.6643L98.4075 82.7053ZM99.509 88.8914C99.7738 89.3761 100.381 89.5543 100.866 89.2894C101.351 89.0246 101.529 88.417 101.264 87.9323L99.509 88.8914ZM96.6525 83.6643L99.509 88.8914L101.264 87.9323L98.4075 82.7053L96.6525 83.6643Z" fill="white"/>
<path d="M102.051 85.2476C102.536 84.9828 102.714 84.3752 102.449 83.8906C102.184 83.4059 101.577 83.2278 101.092 83.4926L102.051 85.2476ZM95.8651 86.3491C95.3805 86.6139 95.2023 87.2215 95.4672 87.7062C95.732 88.1908 96.3396 88.369 96.8242 88.1041L95.8651 86.3491ZM101.092 83.4926L95.8651 86.3491L96.8242 88.1041L102.051 85.2476L101.092 83.4926Z" fill="white"/>
<ellipse cx="27.9309" cy="84.2376" rx="2.48094" ry="2.48095" stroke="white" stroke-width="2" stroke-linecap="round" stroke-linejoin="round"/>
<circle cx="91.0667" cy="5.36064" r="4.19194" stroke="white" stroke-width="2" stroke-linecap="round" stroke-linejoin="round"/>
<circle cx="4.14811" cy="45.0557" r="2.99424" stroke="white" stroke-width="2" stroke-linecap="round" stroke-linejoin="round"/>
<defs>
<clipPath id="clip0">
<rect width="61" height="61" fill="white" transform="translate(27 13)"/>
</clipPath>
</defs>
</svg>
