<svg width="117" height="94" viewBox="0 0 117 94" fill="none" xmlns="http://www.w3.org/2000/svg">
<g clip-path="url(#clip0)">
<path d="M92.1441 51.2155C89.9381 53.0085 87.6599 54.8954 85.5015 56.9792C83.4535 54.937 81.2363 53.0833 79.0597 51.316C78.6102 50.9509 78.163 50.5901 77.7194 50.2321C75.75 48.6428 73.8518 47.111 72.1315 45.5258C67.9239 41.6487 64.9999 37.6452 64.9999 32.2488C64.9999 26.5128 69.5867 21.7881 75.2816 21.7881C79.357 21.7881 82.954 24.2379 84.5859 27.6646L85.4887 29.5606L86.3916 27.6646C88.0234 24.2379 91.6205 21.7881 95.6959 21.7881C101.391 21.7881 105.978 26.513 105.978 32.2488C105.978 37.5649 103.177 41.5255 99.0417 45.3969C97.2334 47.0897 95.2059 48.733 93.0795 50.4566C92.7697 50.7078 92.4577 50.9606 92.1441 51.2155Z" stroke="white" stroke-width="2"/>
<path d="M89.6075 60.0051C87.2795 62.3331 83.8773 62.3331 81.5493 60.0051C82.4446 58.9307 84.0562 58.0354 84.0562 56.6028C84.9515 56.6028 86.026 56.6028 86.9215 56.6028C86.9215 58.0354 88.7121 58.7517 89.6075 60.0051Z" fill="white"/>
<path d="M101.426 27.5931C102.68 29.0256 103.217 30.8164 102.501 31.3536C101.784 31.8908 100.173 31.3536 98.9194 29.7419C97.6658 28.3094 97.1286 26.5186 97.8449 25.9814C98.382 25.4442 99.9936 26.1604 101.426 27.5931Z" fill="white"/>
<path d="M87.2795 57.6773H83.8771C83.519 57.6773 83.3398 57.4981 83.3398 57.1401C83.3398 56.782 83.519 56.6028 83.8771 56.6028H87.2795C87.6376 56.6028 87.8167 56.782 87.8167 57.1401C87.8167 57.319 87.6376 57.6773 87.2795 57.6773Z" fill="white"/>
<path d="M82.2654 61.4379C82.0862 61.4379 81.7281 61.2588 81.7281 61.0798C81.7281 60.7217 81.9073 60.5426 82.0862 60.3635C82.6235 60.1843 82.9815 60.0054 82.9815 59.1099C83.1607 57.8563 84.4141 56.961 84.5932 56.7819C84.7723 56.6028 85.1304 56.6028 85.3095 56.961C85.4887 57.1402 85.4887 57.4982 85.1304 57.6774C84.7723 57.8565 84.056 58.5727 84.056 59.289C84.0561 60.5424 83.5189 61.0797 82.2654 61.4379Z" fill="white"/>
<path d="M88.3539 68.9588C85.3098 63.7658 86.5632 57.14 86.5632 57.14V56.9609H85.4887C85.3096 57.4981 84.2352 63.9447 87.4585 69.496C90.3237 74.6891 86.0259 84.001 86.0259 84.1801C85.8468 84.5382 86.0259 84.7173 86.2051 84.8965H86.3842C86.5633 84.8965 86.7423 84.7173 86.9214 84.5384C87.1004 84.1799 91.5773 74.6891 88.3539 68.9588Z" fill="white"/>
<path d="M50.6363 38.8706C48.3049 40.7641 45.8941 42.7611 43.6047 44.9751C41.463 42.8028 39.1327 40.8393 36.8391 38.9721C36.2933 38.5277 35.7506 38.0897 35.213 37.6557C33.2234 36.0496 31.3038 34.5 29.555 32.8991C25.1208 28.84 22.0229 24.6582 22.0229 18.9975C22.0229 12.9142 26.9571 7.99951 32.8417 7.99951C37.0977 7.99951 40.889 10.4534 42.8787 14.2668L43.8473 16.1234L44.6823 14.203C46.3102 10.4589 50.0623 7.99951 54.3305 7.99951C60.2151 7.99951 65.1494 12.9142 65.1494 18.9975C65.1494 24.5819 62.2148 28.7215 57.8786 32.7716C55.9954 34.5304 53.8838 36.2402 51.6663 38.0358C51.3253 38.3119 50.9818 38.59 50.6363 38.8706Z" stroke="white" stroke-width="2"/>
<path d="M47.7044 48.0073C45.1974 50.3353 41.795 50.3353 39.288 48.0073C40.1833 46.7537 41.9741 46.0375 41.9741 44.4259C43.0486 44.4259 43.9439 44.4259 45.0183 44.4259C45.0183 45.8584 46.8089 46.7537 47.7044 48.0073Z" fill="white"/>
<path d="M60.2394 13.9834C61.6719 15.5951 62.0302 17.3858 61.3138 17.9231C60.5975 18.6394 58.8068 17.9231 57.5533 16.3114C56.1207 14.6997 55.7625 12.909 56.4788 12.3717C57.1952 11.6554 58.8068 12.3717 60.2394 13.9834Z" fill="white"/>
<path d="M45.3764 45.5001H41.795C41.4369 45.5001 41.2578 45.321 41.2578 44.9629C41.2578 44.6048 41.4369 44.4257 41.795 44.4257H45.3764C45.7345 44.4257 45.9136 44.6048 45.9136 44.9629C46.0927 45.142 45.7345 45.5001 45.3764 45.5001Z" fill="white"/>
<path d="M40.1833 49.4397C40.0041 49.4397 39.6461 49.2606 39.6461 49.0816C39.6461 48.7235 39.8252 48.5444 40.0041 48.3653C40.5414 48.1861 40.8995 48.0072 41.0786 47.1117C41.2577 45.8581 42.5111 44.7837 42.6903 44.6047C42.8694 44.4256 43.2275 44.4256 43.4066 44.7838C43.5857 44.963 43.5857 45.3211 43.2275 45.5002C42.8694 45.6793 42.153 46.3955 41.9739 47.1119C41.9739 48.5444 41.4367 49.0816 40.1833 49.4397Z" fill="white"/>
<path d="M46.4508 57.3189C43.4066 51.7675 44.4811 44.9628 44.66 44.9628V44.7837H43.5856C43.4065 45.3209 42.332 52.1256 45.5553 57.8561C48.5995 63.2283 44.1228 73.0774 43.9437 73.2563C43.7645 73.6144 43.9437 73.9727 44.3018 73.9727H44.4809C44.66 73.9727 44.839 73.7936 45.0181 73.6146C45.1972 73.4356 49.8533 63.2283 46.4508 57.3189Z" fill="white"/>
<path d="M70.3379 66.6063C68.2509 68.2954 66.0884 70.0701 64.0271 72.0214C62.107 70.0707 60.0202 68.3073 57.9669 66.6337C57.4424 66.2062 56.9213 65.7854 56.4057 65.3691C54.6374 63.9414 52.9337 62.5659 51.3777 61.1467C47.3659 57.4876 44.5856 53.7541 44.5856 48.7236C44.5856 43.3664 48.9728 38.9792 54.33 38.9792C58.2153 38.9792 61.4685 41.2411 63.1055 44.515L63.9999 46.3038L64.8944 44.5149C66.5313 41.241 69.7845 38.9792 73.6699 38.9792C79.027 38.9792 83.4143 43.3664 83.4143 48.7236C83.4143 53.6819 80.7926 57.4187 76.8805 61.089C75.1131 62.7472 73.1194 64.3582 71.023 66.0523C70.7958 66.2359 70.5673 66.4205 70.3379 66.6063Z" stroke="white" stroke-width="2"/>
<path d="M67.7604 74.6892C65.6116 76.8381 62.3883 76.8381 60.2394 74.6892C61.1347 73.6148 62.7463 72.8984 62.7463 71.4659C63.6417 71.4659 64.5371 71.4659 65.4324 71.4659C65.4326 72.8984 67.0443 73.6148 67.7604 74.6892Z" fill="white"/>
<path d="M79.042 44.0676C80.2956 45.5002 80.6537 47.1118 80.1165 47.649C79.5793 48.1863 77.9676 47.6491 76.714 46.2165C75.4605 44.784 75.1024 43.1723 75.6396 42.6351C76.177 42.0979 77.7886 42.6351 79.042 44.0676Z" fill="white"/>
<path d="M65.7908 72.5404H62.5674C62.2093 72.5404 62.0302 72.3612 62.0302 72.0031C62.0302 71.645 62.2093 71.4659 62.5674 71.4659H65.7908C66.1488 71.4659 66.328 71.645 66.328 72.0031C66.1488 72.3612 65.9699 72.5404 65.7908 72.5404Z" fill="white"/>
<path d="M60.9557 76.1218C60.7766 76.1218 60.4185 75.9426 60.4185 75.7637C60.4185 75.4056 60.5976 75.2265 60.7766 75.0473C61.3138 74.8682 61.6719 74.6892 61.6719 73.9729C61.8511 72.7193 63.1045 71.824 63.1045 71.824C63.2836 71.6449 63.6417 71.6449 63.8208 72.0031C63.9999 72.1823 63.9999 72.5404 63.6417 72.7195C63.2836 72.8986 62.5672 73.6148 62.5672 74.152C62.5674 75.2265 62.0302 75.9428 60.9557 76.1218Z" fill="white"/>
<path d="M66.1488 92.5967C66.1488 93.1339 67.2232 93.1339 67.2232 92.5967C67.9396 89.5525 68.2977 85.9709 66.686 83.2848C63.8208 78.2707 65.0743 72.1823 65.0743 72.1823V72.0032H63.9999C63.8208 72.5404 62.9255 78.629 65.7907 83.822C67.2232 86.329 66.8651 89.7315 66.1488 92.5967Z" fill="white"/>
</g>
<path d="M112.127 73.7046C111.762 73.2906 111.13 73.2513 110.716 73.6168C110.302 73.9823 110.262 74.6143 110.628 75.0283L112.127 73.7046ZM114.218 79.094C114.583 79.508 115.215 79.5473 115.629 79.1818C116.043 78.8162 116.082 78.1843 115.717 77.7703L114.218 79.094ZM110.628 75.0283L114.218 79.094L115.717 77.7703L112.127 73.7046L110.628 75.0283Z" fill="white"/>
<path d="M115.867 75.3543C116.281 74.9887 116.32 74.3568 115.955 73.9428C115.589 73.5288 114.957 73.4895 114.543 73.855L115.867 75.3543ZM110.478 77.4446C110.064 77.8101 110.024 78.4421 110.39 78.8561C110.755 79.2701 111.387 79.3094 111.801 78.9439L110.478 77.4446ZM114.543 73.855L110.478 77.4446L111.801 78.9439L115.867 75.3543L114.543 73.855Z" fill="white"/>
<ellipse cx="49.791" cy="89.3252" rx="2.2589" ry="2.25891" transform="rotate(-12.7855 49.791 89.3252)" stroke="white" stroke-width="2" stroke-linecap="round" stroke-linejoin="round"/>
<ellipse cx="89.9575" cy="6.56679" rx="3.81676" ry="3.81676" transform="rotate(-12.7855 89.9575 6.56679)" stroke="white" stroke-width="2" stroke-linecap="round" stroke-linejoin="round"/>
<ellipse cx="20.7787" cy="59.3269" rx="2.72626" ry="2.72626" transform="rotate(-12.7855 20.7787 59.3269)" stroke="white" stroke-width="2" stroke-linecap="round" stroke-linejoin="round"/>
<path d="M6.46945 20.5712C6.34723 20.0326 5.81153 19.6951 5.27294 19.8173C4.73435 19.9395 4.39682 20.4752 4.51904 21.0138L6.46945 20.5712ZM6.10493 28.0023C6.22715 28.5409 6.76284 28.8784 7.30143 28.7562C7.84002 28.634 8.17756 28.0983 8.05534 27.5597L6.10493 28.0023ZM10.0027 24.469C10.5413 24.3468 10.8789 23.8111 10.7566 23.2725C10.6344 22.7339 10.0987 22.3964 9.56013 22.5186L10.0027 24.469ZM2.57164 24.1045C2.03305 24.2267 1.69552 24.7624 1.81774 25.301C1.93996 25.8396 2.47566 26.1771 3.01425 26.0549L2.57164 24.1045ZM4.51904 21.0138L5.31198 24.508L7.26239 24.0654L6.46945 20.5712L4.51904 21.0138ZM5.31198 24.508L6.10493 28.0023L8.05534 27.5597L7.26239 24.0654L5.31198 24.508ZM9.56013 22.5186L6.06589 23.3115L6.50849 25.262L10.0027 24.469L9.56013 22.5186ZM6.06589 23.3115L2.57164 24.1045L3.01425 26.0549L6.50849 25.262L6.06589 23.3115Z" fill="white"/>
<defs>
<clipPath id="clip0">
<rect width="86" height="86" fill="white" transform="translate(21 6.99951)"/>
</clipPath>
</defs>
</svg>
