<svg width="89" height="79" viewBox="0 0 89 79" fill="none" xmlns="http://www.w3.org/2000/svg">
<g clip-path="url(#clip0)">
<path d="M76.0465 43.7861C75.4509 43.7861 74.968 44.2689 74.968 44.8645C74.968 45.6196 74.3538 46.2339 73.5987 46.2339C72.8437 46.2339 72.2293 45.6196 72.2293 44.8645C72.2293 44.2688 71.7465 43.7861 71.1509 43.7861C70.5553 43.7861 70.0724 44.2689 70.0724 44.8645C70.0724 46.8089 71.6544 48.3907 73.5987 48.3907C75.5429 48.3907 77.1249 46.8088 77.1249 44.8645C77.1249 44.2686 76.6421 43.7861 76.0465 43.7861Z" fill="white"/>
<path d="M86.1695 43.9622L83.1341 42.9899C82.7453 42.8653 82.4389 42.555 82.3146 42.1597C81.6748 40.1257 80.7094 38.2162 79.4452 36.484C78.869 35.6944 78.2282 34.9405 77.5283 34.2228C77.9761 32.2582 78.2195 30.0349 78.188 28.1141C78.1428 25.3663 77.5937 23.7547 76.5093 23.1867C75.9253 22.8805 74.148 21.9501 64.5277 26.3538C64.2999 26.4581 64.0871 26.5864 63.8902 26.7335C63.2416 26.5592 62.5787 26.398 61.9118 26.2533C61.8314 26.2357 61.7486 26.2203 61.6677 26.2032C62.4473 24.5002 62.9025 22.6506 62.988 20.7412C63.0146 20.1461 62.554 19.6421 61.9588 19.6156C61.3652 19.5861 60.8597 20.0495 60.8332 20.6447C60.6926 23.7842 59.3903 26.7381 57.1663 28.9623C55.8374 30.2911 54.2815 31.2564 52.6233 31.8643C49.7475 31.4607 46.8183 31.4607 43.9425 31.8643C42.2841 31.2564 40.7284 30.2911 39.3995 28.9623C37.0267 26.5895 35.7199 23.4347 35.7199 20.0789C35.7199 16.7231 37.0267 13.5684 39.3995 11.1956C41.7723 8.8226 44.9273 7.51577 48.2829 7.51577C51.6385 7.51577 54.7935 8.8226 57.1663 11.1956C58.1198 12.1491 58.9077 13.2372 59.5083 14.4294C59.7762 14.9615 60.4247 15.1757 60.9566 14.9076C61.4887 14.6399 61.7028 13.9913 61.4348 13.4594C60.731 12.0614 59.808 10.7867 58.6916 9.67018C55.9114 6.88993 52.2148 5.35876 48.283 5.35876C44.3513 5.35876 40.6547 6.88993 37.8744 9.67018C35.0942 12.4506 33.563 16.147 33.563 20.0788C33.563 24.0106 35.0942 27.7071 37.8744 30.4874C38.6764 31.2894 39.5489 31.979 40.4717 32.5568C40.472 32.5568 40.4723 32.5567 40.4726 32.5567C39.802 32.731 39.1365 32.9266 38.4784 33.1466C37.9135 33.3355 37.6087 33.9465 37.7976 34.5115C37.9863 35.0764 38.5975 35.3812 39.1623 35.1925C45.0438 33.2262 51.5223 33.2262 57.4038 35.1925C57.5173 35.2304 57.6325 35.2484 57.7458 35.2484C58.1969 35.2484 58.6175 34.9629 58.7685 34.5115C58.9574 33.9466 58.6526 33.3355 58.0877 33.1466C57.4295 32.9266 56.764 32.7308 56.0935 32.5567C56.0938 32.5567 56.0941 32.5568 56.0943 32.5568C57.0173 31.979 57.8897 31.2894 58.6916 30.4874C59.4011 29.7779 60.0274 29.0031 60.5712 28.1797C60.8685 28.2375 61.1636 28.298 61.4544 28.3611C61.8417 28.4452 62.2273 28.5355 62.6094 28.6303C62.5974 28.6772 62.5851 28.7239 62.5751 28.7715C62.0491 31.2675 62.0833 33.475 62.6765 35.3325C63.2098 37.002 64.1721 38.3546 65.5365 39.3528C67.1447 40.5292 69.0862 41.0374 70.8449 41.0374C72.1685 41.0374 73.3888 40.7494 74.285 40.2418C75.2988 39.6676 76.1481 38.4578 76.8204 36.6413C77.1311 37.004 77.4257 37.3756 77.7033 37.7559C78.8289 39.298 79.6882 40.9975 80.2573 42.807C80.5915 43.8698 81.4211 44.7061 82.4764 45.0443L85.5118 46.0166C86.3083 46.2718 86.8434 47.0049 86.8434 47.8412V52.8744C86.8434 53.7107 86.3083 54.4438 85.5118 54.699L80.6213 56.2655C79.8389 56.5163 79.1767 57.054 78.7568 57.7797C76.8354 61.1002 73.8146 63.8481 69.7778 65.9469C69.3114 66.1896 68.9884 66.6237 68.8911 67.1381L67.3248 75.4319C67.2815 75.6605 67.0813 75.8262 66.8487 75.8262H61.7559C61.5233 75.8262 61.3231 75.6603 61.2798 75.4319L60.4123 70.8483C60.2415 69.9464 59.3956 69.3474 58.4853 69.4853C56.2915 69.817 54.031 69.9851 51.7669 69.9851C50.0824 69.9851 48.4195 69.8911 46.8241 69.7057C45.9419 69.6043 45.1201 70.2056 44.9553 71.0767L44.1308 75.4319C44.0876 75.6605 43.8874 75.8262 43.6548 75.8262H38.5619C38.3293 75.8262 38.1292 75.6603 38.0853 75.4285L36.5772 67.595C36.48 67.0903 36.1631 66.6612 35.707 66.4176C28.8256 62.744 25.1884 56.6066 25.1884 48.6692C25.1884 44.6589 26.0658 41.1127 27.7961 38.1288C29.4108 35.3442 31.7691 33.0419 34.8056 31.2855C35.3211 30.9872 35.4973 30.3275 35.1991 29.8118C34.901 29.2962 34.2413 29.1203 33.7256 29.4182C27.8378 32.8242 24.2867 38.0787 23.309 44.7525V44.7524C23.2052 44.743 23.1013 44.734 22.9978 44.7233C23.0166 44.0032 22.8864 43.2766 22.6027 42.5715C21.977 41.0161 20.6917 39.8935 19.3281 39.7116C18.2536 39.5677 17.2311 40.024 16.5214 40.9616C15.4925 42.3212 15.6602 43.3972 15.982 44.0604C16.5252 45.1796 17.9215 45.9713 20.2385 46.4691C20.1749 46.5645 20.1048 46.6603 20.0281 46.7565C18.659 48.4736 17.0461 48.8532 15.9988 48.8889C15.3857 48.9096 14.8947 49.4019 14.8947 50.0154V50.0206C14.8947 50.6258 15.3722 51.1193 15.9768 51.147C16.0542 51.1506 16.1351 51.1525 16.2193 51.1525C17.5446 51.1525 19.6715 50.6637 21.7149 48.1014C22.0375 47.697 22.3003 47.2704 22.5024 46.8295C22.7059 46.8525 22.9014 46.8722 23.0887 46.8896C23.0887 46.8891 23.0887 46.8888 23.0888 46.8884C23.0521 47.4728 23.0317 48.0658 23.0317 48.6692C23.0317 53.1601 24.1023 57.1643 26.2136 60.5709C28.1603 63.7117 30.9475 66.2834 34.5005 68.2174L35.9667 75.8329C36.2024 77.0788 37.2939 77.9831 38.5619 77.9831H43.6548C44.9228 77.9831 46.0143 77.0788 46.2501 75.8329L46.9955 71.8949C48.5436 72.0589 50.1464 72.1419 51.7667 72.1419C53.9899 72.1419 56.2104 71.9871 58.3745 71.6814L59.1603 75.8332C59.3962 77.0791 60.4877 77.9832 61.7556 77.9832H66.8484C68.1165 77.9832 69.2079 77.0789 69.4439 75.8326L70.969 67.7576C75.2775 65.4793 78.5251 62.4864 80.6235 58.8599C80.7747 58.5985 81.0076 58.4067 81.2791 58.3197L86.1695 56.7532C87.8625 56.2106 89 54.6519 89 52.8741V47.8409C89 46.0632 87.8625 44.5046 86.1695 43.9622ZM75.8692 31.1448C75.4541 34.6946 74.3406 37.7312 73.2218 38.3648C71.9501 39.0852 69.0141 39.2243 66.8098 37.6118C64.6028 35.9974 63.8683 33.0942 64.6853 29.2162C64.6853 29.216 64.6853 29.216 64.6853 29.216C64.7674 28.8265 65.0441 28.4896 65.4255 28.315C70.8248 25.8435 73.9376 25.0352 75.0941 25.0352C75.2686 25.0352 75.3986 25.0535 75.4852 25.0874C75.8325 25.4576 76.2882 27.5623 75.8692 31.1448ZM17.9228 43.1186C17.8112 42.8884 18.0746 42.4839 18.2416 42.263C18.5063 41.9134 18.7502 41.8419 18.9345 41.8419C18.9734 41.8419 19.0097 41.845 19.043 41.8495C19.5389 41.9157 20.2336 42.4613 20.6017 43.3762C20.6884 43.5916 20.801 43.9484 20.8273 44.3933C19.3344 44.084 18.1745 43.638 17.9228 43.1186Z" fill="white"/>
<path d="M49.3303 18.8427V14.9835C50.6611 15.0786 51.1555 15.6869 51.6117 15.6869C52.1822 15.6869 52.4483 14.9645 52.4483 14.6033C52.4483 13.6716 50.6231 13.2724 49.3303 13.2343V12.7208C49.3303 12.4927 49.045 12.2836 48.7599 12.2836C48.4365 12.2836 48.2084 12.4927 48.2084 12.7208V13.2721C46.4022 13.4623 44.5961 14.4129 44.5961 16.8085C44.5961 19.2421 46.4973 19.9265 48.2084 20.5349V25.0027C46.2691 24.8506 45.7558 23.5198 45.1284 23.5198C44.6531 23.5198 44.2539 24.1472 44.2539 24.6036C44.2539 25.5351 45.8509 26.8089 48.2084 26.847V27.4363C48.2084 27.6644 48.4367 27.8736 48.7599 27.8736C49.0451 27.8736 49.3303 27.6644 49.3303 27.4363V26.7899C51.3836 26.5047 52.7905 25.2119 52.7905 22.8734C52.7905 20.2878 50.9843 19.4511 49.3303 18.8427ZM48.3225 18.4816C47.3148 18.1014 46.4973 17.7022 46.4973 16.6186C46.4973 15.6299 47.2578 15.1546 48.3225 15.0215V18.4816V18.4816ZM49.2161 24.9647V20.9531C50.1476 21.3523 50.8891 21.8847 50.8891 23.0824C50.8891 24.1663 50.2427 24.7746 49.2161 24.9647Z" fill="white"/>
<path d="M21.25 5.63158C21.25 5.0793 20.8023 4.63158 20.25 4.63158C19.6977 4.63158 19.25 5.0793 19.25 5.63158H21.25ZM19.25 12.2895C19.25 12.8418 19.6977 13.2895 20.25 13.2895C20.8023 13.2895 21.25 12.8418 21.25 12.2895H19.25ZM23.5789 9.96053C24.1312 9.96053 24.5789 9.51282 24.5789 8.96053C24.5789 8.40825 24.1312 7.96053 23.5789 7.96053V9.96053ZM16.921 7.96053C16.3687 7.96053 15.921 8.40825 15.921 8.96053C15.921 9.51282 16.3687 9.96053 16.921 9.96053L16.921 7.96053ZM19.25 5.63158V8.96053H21.25V5.63158H19.25ZM19.25 8.96053V12.2895H21.25V8.96053H19.25ZM23.5789 7.96053H20.25V9.96053H23.5789V7.96053ZM20.25 7.96053L16.921 7.96053L16.921 9.96053L20.25 9.96053L20.25 7.96053Z" fill="white"/>
<path d="M83.4042 69.8997C83.1393 69.4151 82.5318 69.2369 82.0471 69.5018C81.5625 69.7666 81.3843 70.3742 81.6492 70.8588L83.4042 69.8997ZM84.0655 75.2805C84.3304 75.7652 84.938 75.9434 85.4226 75.6785C85.9072 75.4137 86.0854 74.8061 85.8206 74.3215L84.0655 75.2805ZM81.6492 70.8588L84.0655 75.2805L85.8206 74.3215L83.4042 69.8997L81.6492 70.8588Z" fill="white"/>
<path d="M86.4252 72.2595C86.9099 71.9946 87.088 71.387 86.8232 70.9024C86.5583 70.4178 85.9508 70.2396 85.4661 70.5044L86.4252 72.2595ZM81.0444 72.9208C80.5598 73.1857 80.3816 73.7932 80.6465 74.2779C80.9113 74.7625 81.5189 74.9407 82.0035 74.6758L81.0444 72.9208ZM85.4661 70.5044L81.0444 72.9208L82.0035 74.6758L86.4252 72.2595L85.4661 70.5044Z" fill="white"/>
<ellipse cx="23.6513" cy="71.2697" rx="2.09868" ry="2.09869" stroke="white" stroke-width="2" stroke-linecap="round" stroke-linejoin="round"/>
</g>
<circle cx="77.0592" cy="4.54605" r="3.54605" stroke="white" stroke-width="2" stroke-linecap="round" stroke-linejoin="round"/>
<circle cx="3.53289" cy="38.125" r="2.53289" stroke="white" stroke-width="2" stroke-linecap="round" stroke-linejoin="round"/>
<defs>
<clipPath id="clip0">
<rect width="74.1053" height="74.1053" fill="white" transform="translate(14.8947 4.61842)"/>
</clipPath>
</defs>
</svg>
