<svg width="113" height="114" viewBox="0 0 113 114" fill="none" xmlns="http://www.w3.org/2000/svg">
<g clip-path="url(#clip0)">
<path d="M80.5633 30.2317H42.7398C38.6802 30.2369 35.3904 33.5267 35.3852 37.5863V75.3226C35.3904 79.3822 38.6802 82.6719 42.7398 82.6771H54.2969V80.5758H42.7398C39.84 80.5724 37.4899 78.2224 37.4865 75.3226V57.5487H44.2338C44.8564 57.5031 45.3244 56.9615 45.2788 56.3387C45.27 56.2187 45.2422 56.1007 45.1962 55.9895C44.2624 53.8646 45.228 51.385 47.3529 50.4512C49.4779 49.5175 51.9574 50.483 52.8912 52.608C53.3646 53.6854 53.3646 54.9121 52.8912 55.9895C52.6317 56.5324 52.8615 57.1829 53.4044 57.4424C53.5448 57.5095 53.6981 57.5458 53.8536 57.5488H60.6009V63.8527C60.2538 63.7936 59.9023 63.7645 59.5502 63.7655C56.0686 63.7643 53.2454 66.5857 53.2441 70.0672C53.2431 72.5755 54.7294 74.8456 57.0286 75.848L57.8692 73.9232C55.7408 72.9973 54.7659 70.5215 55.6917 68.3931C56.3596 66.8575 57.8756 65.865 59.5502 65.8668C60.1293 65.8667 60.7019 65.9876 61.2313 66.2219C61.763 66.454 62.3824 66.211 62.6144 65.6793C62.6722 65.5469 62.702 65.404 62.7022 65.2595V57.5487H68.0447C67.985 57.8956 67.955 58.2472 67.9554 58.5993C67.9617 61.5929 70.0669 64.1717 72.9986 64.7772L73.4188 62.7189C71.4644 62.3146 70.0611 60.5952 70.0567 58.5993C70.0566 58.0203 70.1776 57.4477 70.4119 56.9183C70.6439 56.3865 70.401 55.7672 69.8692 55.5351C69.7368 55.4773 69.5939 55.4475 69.4495 55.4474H62.7022V50.1048C63.0491 50.1645 63.4007 50.1945 63.7528 50.1941C67.2344 50.1941 70.0567 47.3718 70.0567 43.8902C70.0567 40.4086 67.2344 37.5863 63.7528 37.5863C63.4007 37.5859 63.0491 37.6158 62.7022 37.6756V32.333H80.5633C83.4631 32.3364 85.8131 34.6865 85.8165 37.5863V55.4474H79.0692C78.489 55.4476 78.0189 55.9183 78.0191 56.4985C78.0192 56.643 78.0491 56.7859 78.1068 56.9183C78.3411 57.4477 78.4621 58.0203 78.462 58.5993H80.5633C80.5637 58.2472 80.5337 57.8956 80.474 57.5487H86.8672C87.4474 57.5487 87.9178 57.0782 87.9178 56.498V37.5863C87.9126 33.5267 84.6229 30.2369 80.5633 30.2317ZM63.7528 39.6876C66.0738 39.6876 67.9554 41.5692 67.9554 43.8902C67.9554 46.2112 66.0738 48.0928 63.7528 48.0928C63.1738 48.0929 62.6012 47.972 62.0718 47.7377C61.54 47.5056 60.9207 47.7486 60.6886 48.2803C60.6308 48.4127 60.601 48.5556 60.6009 48.7001V55.3602H55.2656C55.3183 55.0417 55.3456 54.7195 55.3476 54.3967C55.3476 54.3778 55.3476 54.361 55.3476 54.3421C55.3476 54.3232 55.3476 54.32 55.3476 54.3095C55.3476 50.8279 52.5253 48.0056 49.0437 48.0056C45.5621 48.0056 42.7398 50.8279 42.7398 54.3095C42.7398 54.32 42.7398 54.3316 42.7398 54.3421C42.7398 54.3526 42.7398 54.3778 42.7398 54.3967C42.7417 54.7195 42.7691 55.0417 42.8217 55.3602H37.4865V37.5863C37.4899 34.6865 39.84 32.3364 42.7398 32.333H60.6009V39.0803C60.6011 39.6605 61.0718 40.1307 61.652 40.1304C61.7965 40.1303 61.9394 40.1005 62.0718 40.0427C62.6012 39.8084 63.1738 39.6874 63.7528 39.6876Z" fill="white"/>
<path d="M96.177 75.3908L87.3442 69.3086L83.9516 60.2446C83.7492 59.7008 83.1443 59.4241 82.6005 59.6264C82.581 59.6337 82.5617 59.6415 82.5427 59.6499L75.7134 62.6706C75.2015 62.8966 74.9567 63.4843 75.1566 64.007C75.2701 64.3012 75.3762 64.5239 75.4886 64.7551C75.601 64.9862 75.705 65.2026 75.8322 65.5441C76.6477 67.7233 75.5497 70.1521 73.3747 70.9791C71.2008 71.7922 68.7793 70.6892 67.9661 68.5151C67.7621 67.9698 67.6737 67.3881 67.7064 66.807C67.7369 66.2276 67.2918 65.7331 66.7124 65.7026C66.5671 65.695 66.422 65.7176 66.2859 65.769L58.986 68.5185C58.444 68.7227 58.1695 69.3271 58.3724 69.8697L60.9927 76.8702C60.6454 76.9335 60.3043 77.0276 59.9736 77.1517C56.7041 78.3701 55.0415 82.0082 56.2598 85.2777C57.4782 88.5472 61.1163 90.2099 64.3858 88.9915C64.7224 88.8661 65.0477 88.7122 65.3582 88.5313L67.2368 93.5493C67.4403 94.0927 68.0458 94.3681 68.5892 94.1646C68.5899 94.1643 68.5904 94.164 68.5911 94.1639L79.0009 90.2418C79.6548 91.6473 80.8581 92.7217 82.3284 93.2131L82.9924 91.2168C82.1264 90.925 81.4067 90.31 80.9835 89.5L84.1512 88.3076C85.1918 91.2343 87.9637 93.1877 91.0698 93.1836V91.0823C88.1759 91.0646 85.8343 88.723 85.8165 85.8291C85.8165 85.5504 85.7057 85.2833 85.5087 85.0863L81.8503 81.4279C81.3079 80.8808 81.2467 80.0195 81.7064 79.4012C81.974 79.0399 82.3872 78.8148 82.8358 78.7855C83.2851 78.7477 83.7276 78.9131 84.042 79.2362L91.3776 86.5719L92.8632 85.0863L90.6926 82.9156C91.2274 81.3164 91.1944 79.5816 90.5991 78.0038L88.6302 72.7453L94.9793 77.1171C95.8208 77.7078 96.3223 78.6714 96.323 79.6996V93.2708H98.4244V79.6996C98.4229 77.9827 97.5841 76.3745 96.177 75.3908ZM88.6312 78.7403C88.9215 79.5118 89.0265 80.3405 88.938 81.16L85.5276 77.7506C84.1199 76.3069 81.8084 76.2778 80.3647 77.6855C78.921 79.0932 78.8919 81.4046 80.2995 82.8484C80.321 82.8703 80.3426 82.8921 80.3647 82.9135L83.6879 86.2367L68.8401 91.8293L66.8375 86.4784C66.7129 86.1458 66.4287 85.8989 66.0821 85.8217C66.0073 85.8052 65.9308 85.7966 65.8541 85.7965C65.5792 85.7962 65.3153 85.9038 65.1187 86.0959C63.4316 87.6899 60.7716 87.6144 59.1776 85.9272C57.5836 84.2401 57.6592 81.5801 59.3464 79.9861C59.7433 79.6112 60.2092 79.3173 60.7185 79.1205C61.053 78.9965 61.4024 78.9175 61.7576 78.8852C61.9762 78.8584 62.1965 78.851 62.4164 78.8631C62.9958 78.8934 63.4903 78.4484 63.5206 77.8689C63.5282 77.7249 63.506 77.5808 63.4555 77.4458L60.7112 70.1185L65.7144 68.2347C66.371 71.6538 69.6751 73.8931 73.0942 73.2366C73.4435 73.1695 73.7865 73.073 74.1196 72.9479C77.3775 71.7118 79.0243 68.0757 77.8042 64.8117C77.7076 64.5532 77.6204 64.3483 77.5363 64.1655L82.3693 62.0253L88.6312 78.7403Z" fill="white"/>
</g>
<path d="M60.3157 11.1414C60.536 10.6349 60.3041 10.0458 59.7977 9.82544C59.2912 9.60511 58.7021 9.83704 58.4817 10.3435L60.3157 11.1414ZM55.4603 17.2881C55.24 17.7945 55.4719 18.3837 55.9783 18.604C56.4848 18.8243 57.0739 18.5924 57.2943 18.086L55.4603 17.2881ZM60.9614 16.6424C61.4678 16.8627 62.057 16.6308 62.2773 16.1244C62.4976 15.618 62.2657 15.0288 61.7593 14.8085L60.9614 16.6424ZM54.8146 11.7871C54.3082 11.5667 53.719 11.7986 53.4987 12.3051C53.2784 12.8115 53.5103 13.4007 54.0167 13.621L54.8146 11.7871ZM58.4817 10.3435L56.971 13.8158L58.805 14.6137L60.3157 11.1414L58.4817 10.3435ZM56.971 13.8158L55.4603 17.2881L57.2943 18.086L58.805 14.6137L56.971 13.8158ZM61.7593 14.8085L58.2869 13.2978L57.4891 15.1317L60.9614 16.6424L61.7593 14.8085ZM58.2869 13.2978L54.8146 11.7871L54.0167 13.621L57.4891 15.1317L58.2869 13.2978Z" fill="white"/>
<path d="M77.7552 102.399C77.7057 101.849 77.2196 101.443 76.6696 101.493C76.1195 101.542 75.7137 102.028 75.7632 102.578L77.7552 102.399ZM76.2771 108.287C76.3266 108.837 76.8126 109.243 77.3627 109.193C77.9128 109.144 78.3185 108.658 78.269 108.108L76.2771 108.287ZM75.7632 102.578L76.2771 108.287L78.269 108.108L77.7552 102.399L75.7632 102.578Z" fill="white"/>
<path d="M79.9603 106.082C80.5103 106.033 80.9161 105.546 80.8666 104.996C80.8171 104.446 80.331 104.041 79.781 104.09L79.9603 106.082ZM74.0723 104.604C73.5222 104.653 73.1164 105.139 73.1659 105.69C73.2154 106.24 73.7015 106.645 74.2515 106.596L74.0723 104.604ZM79.781 104.09L74.0723 104.604L74.2515 106.596L79.9603 106.082L79.781 104.09Z" fill="white"/>
<ellipse cx="28.0464" cy="89.3732" rx="2.38727" ry="2.38728" transform="rotate(23.5125 28.0464 89.3732)" stroke="white" stroke-width="2" stroke-linecap="round" stroke-linejoin="round"/>
<circle cx="101.213" cy="49.5397" r="4.03367" transform="rotate(23.5125 101.213 49.5397)" stroke="white" stroke-width="2" stroke-linecap="round" stroke-linejoin="round"/>
<circle cx="18.6964" cy="44.0231" r="2.88119" transform="rotate(23.5125 18.6964 44.0231)" stroke="white" stroke-width="2" stroke-linecap="round" stroke-linejoin="round"/>
<defs>
<clipPath id="clip0">
<rect width="64" height="64" fill="white" transform="translate(34.905 30.2317)"/>
</clipPath>
</defs>
</svg>
